<?xml version="1.0" encoding="UTF-8" standalone="no"?>
<!DOCTYPE svg PUBLIC "-//W3C//DTD SVG 1.1//EN" "http://www.w3.org/Graphics/SVG/1.1/DTD/svg11.dtd">
<svg width="100%" height="100%" viewBox="0 0 212 221" version="1.1" xmlns="http://www.w3.org/2000/svg" xmlns:xlink="http://www.w3.org/1999/xlink" xml:space="preserve" xmlns:serif="http://www.serif.com/" style="fill-rule:evenodd;clip-rule:evenodd;stroke-linejoin:round;stroke-miterlimit:2;">
    <g>
        <circle cx="105.6" cy="110.4" r="105.6" style="fill:rgb(88,88,88);"/>
        <path d="M105.6,198.4C57.077,198.4 17.6,158.923 17.6,110.4C17.6,61.877 57.077,22.4 105.6,22.4C154.125,22.4 193.6,61.877 193.6,110.4C193.6,158.923 154.125,198.4 105.6,198.4Z" style="fill:rgb(88,88,88);fill-rule:nonzero;"/>
    </g>
    <g transform="matrix(0.4,0,0,0.4,33,33)">
        <path id="glasses" d="M129.525,212.374C126.654,212.877 123.663,212.976 121.291,214.923C116.304,219.024 118.693,229.876 120.99,234.975C125.953,245.989 135.787,253.393 148.087,253.537L151.387,253.537C161.225,253.492 170.651,247.366 173.765,237.862C174.904,234.393 174.941,231.943 174.9,228.375C174.722,213.397 154.931,214.049 144.375,213.042L138.187,212.663L134.062,212.374L129.525,212.374ZM226.462,212.461L221.1,212.737L202.95,214.68C199.048,215.435 194.362,216.928 191.532,219.836C188.752,222.695 188.059,226.609 188.1,230.437C188.244,243.159 198.462,253.389 211.2,253.537C223.051,253.674 233.326,250.176 239.823,239.512C242.434,235.218 244.55,229.315 244.612,224.25C244.641,221.577 244.938,218.661 243.201,216.421C239.955,212.222 231.367,211.867 226.462,212.461Z" style="fill-rule:nonzero;"/>
        <path id="head" d="M80.85,132.675C64.762,135.703 41.535,142.385 28.05,151.514C20.596,156.559 13.6,164.223 18.69,173.513C23.281,181.895 34.753,187.302 43.312,190.833L51.15,193.853C52.165,194.212 54.351,194.773 54.937,195.585C55.865,196.687 54.809,201.818 54.937,203.625C55.159,210.897 57.078,218.966 60.336,225.487L66,234.975C62.304,236.625 56.983,240.238 53.625,242.639C43.766,249.685 35.405,257.547 27.526,266.737L20.864,274.987C19.326,276.963 17.94,278.271 17.325,280.762L33,292.552L55.275,309.485L65.587,317.322L69.585,320.845L68.644,329.85L65.587,350.887L299.062,350.887L294.937,329.437C294.62,327.853 293.205,322.384 293.572,321.192C294.017,319.727 296.199,318.333 297.412,317.421L307.725,309.584L332.062,291.025L346.087,280.35C342.709,274.476 334.405,265.153 329.604,260.137C321.721,251.908 307.857,239.5 297.412,234.975C303.93,224.114 308.158,215.835 308.088,202.8C308.133,201.245 307.358,196.493 308.088,195.585C308.628,194.806 310.505,194.311 311.437,194.001L318.862,191.246C325.66,188.449 334.013,184.526 339.487,179.63C343.67,175.889 346.227,172.23 346.083,166.5C345.93,160.622 340.597,155.499 336.187,152.219C326.44,144.963 309.622,139.432 297.825,136.148L287.925,133.768C286.679,133.488 284.468,133.178 283.515,132.378C282.352,131.396 281.325,126.504 280.854,124.838L275.29,104.625C270.459,86.059 261.822,58.145 252.202,41.925C247.219,33.527 240.454,25.05 230.587,22.435C227.683,21.667 225.295,21.68 222.337,21.713C214.921,21.799 206.114,24.464 198.825,26.077C193.367,27.281 187.881,27.842 182.325,28.238L178.2,27.917C165.181,27.347 153.145,21.849 141.487,21.713C138.472,21.68 136.203,21.564 133.237,22.323C123.106,24.914 116.275,33.003 110.942,41.513C100.778,57.74 92,85.407 87.297,104.213L82.347,123.6C81.679,126.273 80.219,130.019 80.85,132.675ZM283.387,201.975C283.325,208.876 279.91,218.875 274.312,223.144C271.771,225.079 271.016,224.526 268.537,225.632C265.74,226.873 263.538,228.973 262.102,231.675L256.74,244.875L252.095,255.6C244.501,272.649 232.171,294.849 219.037,307.987L213.675,313.23C205.969,319.933 194.407,326.014 183.975,326.137C164.851,326.36 151.928,317.145 139.784,303.037C123.205,283.778 111.857,258.075 102.688,234.562C101.232,230.825 99.334,227.958 95.7,226.036C92.631,224.407 91.761,225.331 88.687,222.819C83.086,218.248 80.025,209.012 80.025,201.975L93.225,204.417L125.812,208.917L144.375,210.262L161.287,211.05L168.3,211.463L195.112,211.463L200.062,211.067L206.662,211.067L214.5,210.638L219.037,210.242C230.987,209.722 243.069,208.521 254.925,206.814L273.075,203.864L283.387,201.975Z" style="fill:rgb(24,24,24);fill-rule:nonzero;"/>
    </g>
</svg>
