<?xml version="1.0" encoding="UTF-8" standalone="no"?>
<!DOCTYPE svg PUBLIC "-//W3C//DTD SVG 1.1//EN" "http://www.w3.org/Graphics/SVG/1.1/DTD/svg11.dtd">
<svg width="100%" height="100%" viewBox="0 0 512 512" version="1.1" xmlns="http://www.w3.org/2000/svg" xmlns:xlink="http://www.w3.org/1999/xlink" xml:space="preserve" xmlns:serif="http://www.serif.com/" style="fill-rule:evenodd;clip-rule:evenodd;stroke-linejoin:round;stroke-miterlimit:2;">
    <g>
        <g>
            <circle cx="256" cy="256" r="256" style="fill:rgb(0,141,255);"/>
            <path d="M256,469.334C138.369,469.334 42.667,373.631 42.667,256.001C42.667,138.369 138.369,42.667 256,42.667C373.636,42.667 469.333,138.369 469.333,256.001C469.333,373.631 373.636,469.334 256,469.334Z" style="fill:rgb(0,141,255);fill-rule:nonzero;"/>
        </g>
        <g>
            <path d="M315.891,167.493L287.516,167.493C287.516,154.494 277.021,144 264.022,144C251.021,144 240.527,154.494 240.527,167.493L212.151,167.493L212.151,208.178L315.891,208.178L315.891,167.493Z" style="fill-opacity:0.3;fill-rule:nonzero;"/>
            <path d="M325.891,187.49L325.891,218.178L202.15,218.178L202.15,187.49L164.354,187.49L164.354,384L363.645,384L363.645,187.49L325.891,187.49ZM309.441,336.469L302.37,343.539L263.999,305.168L225.627,343.539L218.557,336.469L256.929,298.098L218.557,259.726L225.627,252.656L263.999,291.027L302.37,252.656L309.441,259.726L271.069,298.098L309.441,336.469Z" style="fill-opacity:0.3;fill-rule:nonzero;"/>
        </g>
        <g transform="matrix(1,0,0,1,9,2)">
            <path d="M307.891,159.493L279.516,159.493C279.516,146.494 269.021,136 256.022,136C243.021,136 232.527,146.494 232.527,159.493L204.151,159.493L204.151,200.178L307.891,200.178L307.891,159.493Z" style="fill:white;fill-rule:nonzero;"/>
            <path d="M317.891,179.49L317.891,210.178L194.15,210.178L194.15,179.49L156.354,179.49L156.354,376L355.645,376L355.645,179.49L317.891,179.49ZM301.441,328.469L294.37,335.539L255.999,297.168L217.627,335.539L210.557,328.469L248.929,290.098L210.557,251.726L217.627,244.656L255.999,283.027L294.37,244.656L301.441,251.726L263.069,290.098L301.441,328.469Z" style="fill:white;fill-rule:nonzero;"/>
        </g>
    </g>
</svg>
