<?xml version="1.0" encoding="UTF-8" standalone="no"?>
<!DOCTYPE svg PUBLIC "-//W3C//DTD SVG 1.1//EN" "http://www.w3.org/Graphics/SVG/1.1/DTD/svg11.dtd">
<svg width="100%" height="100%" viewBox="0 0 512 512" version="1.1" xmlns="http://www.w3.org/2000/svg" xmlns:xlink="http://www.w3.org/1999/xlink" xml:space="preserve" xmlns:serif="http://www.serif.com/" style="fill-rule:evenodd;clip-rule:evenodd;stroke-linejoin:round;stroke-miterlimit:2;">
    <g>
        <g>
            <circle cx="256" cy="256" r="256" style="fill:rgb(157,178,195);"/>
            <path d="M256,469.334C138.369,469.334 42.667,373.631 42.667,256.001C42.667,138.369 138.369,42.667 256,42.667C373.636,42.667 469.333,138.369 469.333,256.001C469.333,373.631 373.636,469.334 256,469.334Z" style="fill:rgb(157,178,195);fill-rule:nonzero;"/>
        </g>
        <g>
            <path d="M172.743,226.204L144.121,366.142C144.059,366.417 144.268,366.679 144.55,366.679L355.257,366.679L384,226.204L172.743,226.204Z" style="fill-opacity:0.3;fill-rule:nonzero;"/>
            <path d="M355.257,216.203L355.257,187.728L245.962,187.728L218.82,161.321L144,161.321L144,316.835L164.58,216.203L355.257,216.203Z" style="fill-opacity:0.3;fill-rule:nonzero;"/>
        </g>
        <g>
            <path d="M164.743,218.204L136.121,358.142C136.059,358.417 136.268,358.679 136.55,358.679L347.257,358.679L376,218.204L164.743,218.204Z" style="fill:white;fill-rule:nonzero;"/>
            <path d="M347.257,208.203L347.257,179.728L237.962,179.728L210.82,153.321L136,153.321L136,308.835L156.58,208.203L347.257,208.203Z" style="fill:white;fill-rule:nonzero;"/>
        </g>
    </g>
</svg>
