<?xml version="1.0" encoding="UTF-8" standalone="no"?>
<!DOCTYPE svg PUBLIC "-//W3C//DTD SVG 1.1//EN" "http://www.w3.org/Graphics/SVG/1.1/DTD/svg11.dtd">
<svg width="100%" height="100%" viewBox="0 0 512 512" version="1.1" xmlns="http://www.w3.org/2000/svg" xmlns:xlink="http://www.w3.org/1999/xlink" xml:space="preserve" xmlns:serif="http://www.serif.com/" style="fill-rule:evenodd;clip-rule:evenodd;stroke-linejoin:round;stroke-miterlimit:2;">
    <g>
        <g>
            <circle cx="256" cy="256" r="256" style="fill:rgb(230,70,65);"/>
            <path d="M256,469.334C138.369,469.334 42.667,373.631 42.667,256.001C42.667,138.369 138.369,42.667 256,42.667C373.636,42.667 469.333,138.369 469.333,256.001C469.333,373.631 373.636,469.334 256,469.334Z" style="fill:rgb(230,70,65);fill-rule:nonzero;"/>
        </g>
        <path d="M381.498,174.611L335.827,174.611L335.827,153.009C335.827,148.038 331.798,144.01 326.828,144.01L201.17,144.01C196.2,144.01 192.171,148.038 192.171,153.009L192.171,174.611L146.502,174.611L146.502,184.61L167.465,184.61L190.21,368.161C191.33,377.201 199.012,383.989 208.12,383.989L319.877,383.989C328.987,383.989 336.668,377.201 337.788,368.161L360.534,184.61L381.498,184.61L381.498,174.611ZM221.09,351.958L211.164,222.434L221.134,221.672L231.06,351.197L221.09,351.958ZM268.999,351.578L258.999,351.578L258.999,222.053L268.999,222.053L268.999,351.578ZM306.908,351.958L296.938,351.197L306.864,221.672L316.834,222.434L306.908,351.958Z" style="fill-opacity:0.3;fill-rule:nonzero;"/>
        <path d="M373.498,166.611L327.827,166.611L327.827,145.009C327.827,140.038 323.798,136.01 318.828,136.01L193.17,136.01C188.2,136.01 184.171,140.038 184.171,145.009L184.171,166.611L138.502,166.611L138.502,176.61L159.465,176.61L182.21,360.161C183.33,369.201 191.012,375.989 200.12,375.989L311.877,375.989C320.987,375.989 328.668,369.201 329.788,360.161L352.534,176.61L373.498,176.61L373.498,166.611ZM213.09,343.958L203.164,214.434L213.134,213.672L223.06,343.197L213.09,343.958ZM260.999,343.578L250.999,343.578L250.999,214.053L260.999,214.053L260.999,343.578ZM298.908,343.958L288.938,343.197L298.864,213.672L308.834,214.434L298.908,343.958Z" style="fill:white;fill-rule:nonzero;"/>
    </g>
</svg>
