<?xml version="1.0" encoding="UTF-8" standalone="no"?>
<!DOCTYPE svg PUBLIC "-//W3C//DTD SVG 1.1//EN" "http://www.w3.org/Graphics/SVG/1.1/DTD/svg11.dtd">
<svg width="100%" height="100%" viewBox="0 0 512 512" version="1.1" xmlns="http://www.w3.org/2000/svg" xmlns:xlink="http://www.w3.org/1999/xlink" xml:space="preserve" xmlns:serif="http://www.serif.com/" style="fill-rule:evenodd;clip-rule:evenodd;stroke-linejoin:round;stroke-miterlimit:10;">
    <g>
        <circle cx="256" cy="256" r="256" style="fill:rgb(0,198,89);"/>
        <path d="M256,469.334C138.369,469.334 42.667,373.631 42.667,256.001C42.667,138.369 138.369,42.667 256,42.667C373.636,42.667 469.333,138.369 469.333,256.001C469.333,373.631 373.636,469.334 256,469.334Z" style="fill:rgb(0,198,89);fill-rule:nonzero;"/>
    </g>
    <g transform="matrix(9,0,0,9,120,120)">
        <path d="M2,8L19,8L19,23L13,23" style="fill:none;fill-rule:nonzero;stroke:black;stroke-width:2px;"/>
        <circle cx="24" cy="23" r="2" style="fill:none;stroke:black;stroke-width:2px;"/>
        <circle cx="8" cy="23" r="2" style="fill:none;stroke:black;stroke-width:2px;"/>
        <path d="M19,23L19,12L25,12L29,17L29,23L26,23" style="fill:none;fill-rule:nonzero;stroke:black;stroke-width:2px;"/>
        <path d="M4,12L13,12" style="fill:none;fill-rule:nonzero;stroke:black;stroke-width:2px;"/>
        <path d="M2,16L11,16" style="fill:none;fill-rule:nonzero;stroke:black;stroke-width:2px;"/>
    </g>
</svg>
