<?xml version="1.0" encoding="UTF-8" standalone="no"?>
<!DOCTYPE svg PUBLIC "-//W3C//DTD SVG 1.1//EN" "http://www.w3.org/Graphics/SVG/1.1/DTD/svg11.dtd">
<svg width="100%" height="100%" viewBox="0 0 512 512" version="1.1" xmlns="http://www.w3.org/2000/svg" xmlns:xlink="http://www.w3.org/1999/xlink" xml:space="preserve" xmlns:serif="http://www.serif.com/" style="fill-rule:evenodd;clip-rule:evenodd;stroke-linejoin:round;stroke-miterlimit:2;">
    <g>
        <g>
            <circle cx="256" cy="256" r="256" style="fill:rgb(255,179,0);"/>
            <path d="M256,469.334C138.369,469.334 42.667,373.631 42.667,256.001C42.667,138.369 138.369,42.667 256,42.667C373.636,42.667 469.333,138.369 469.333,256.001C469.333,373.631 373.636,469.334 256,469.334Z" style="fill:rgb(255,179,0);fill-rule:nonzero;"/>
        </g>
        <g>
            <path d="M278.319,234.716L156.211,234.716C149.467,234.716 144,240.184 144,246.929L144,328.802C144,335.545 149.467,341.013 156.211,341.013L172.747,341.013L172.977,367.053L212.555,341.013L278.319,341.013C285.063,341.013 290.53,335.545 290.53,328.802L290.53,246.929C290.53,240.184 285.063,234.716 278.319,234.716ZM180.633,259.409L253.897,259.409L253.897,269.409L180.633,269.409L180.633,259.409ZM253.897,317.236L180.633,317.236L180.633,307.236L253.897,307.236L253.897,317.236ZM269.161,293.325L165.369,293.325L165.369,283.325L269.161,283.325L269.161,293.325Z" style="fill-opacity:0.3;fill-rule:nonzero;"/>
            <path d="M371.789,160.947L249.681,160.947C242.937,160.947 237.47,166.413 237.47,173.158L237.47,224.716L278.318,224.716C290.564,224.716 300.53,234.683 300.53,246.929L300.53,267.243L315.446,267.243L355.023,293.282L355.253,267.243L371.789,267.243C378.533,267.243 383.999,261.775 383.999,255.031L383.999,173.158C383.999,166.413 378.533,160.947 371.789,160.947ZM347.366,243.462L308.641,243.462L308.641,233.462L347.366,233.462L347.366,243.462ZM362.63,219.55L258.838,219.55L258.838,209.55L362.63,209.55L362.63,219.55ZM362.63,195.639L258.838,195.639L258.838,185.639L362.63,185.639L362.63,195.639Z" style="fill-opacity:0.3;fill-rule:nonzero;"/>
        </g>
        <g>
            <path d="M270.319,226.716L148.211,226.716C141.467,226.716 136,232.184 136,238.929L136,320.802C136,327.545 141.467,333.013 148.211,333.013L164.747,333.013L164.977,359.053L204.555,333.013L270.319,333.013C277.063,333.013 282.53,327.545 282.53,320.802L282.53,238.929C282.53,232.184 277.063,226.716 270.319,226.716ZM172.633,251.409L245.897,251.409L245.897,261.409L172.633,261.409L172.633,251.409ZM245.897,309.236L172.633,309.236L172.633,299.236L245.897,299.236L245.897,309.236ZM261.161,285.325L157.369,285.325L157.369,275.325L261.161,275.325L261.161,285.325Z" style="fill:white;fill-rule:nonzero;"/>
            <path d="M363.789,152.947L241.681,152.947C234.937,152.947 229.47,158.413 229.47,165.158L229.47,216.716L270.318,216.716C282.564,216.716 292.53,226.683 292.53,238.929L292.53,259.243L307.446,259.243L347.023,285.282L347.253,259.243L363.789,259.243C370.533,259.243 375.999,253.775 375.999,247.031L375.999,165.158C375.999,158.413 370.533,152.947 363.789,152.947ZM339.366,235.462L300.641,235.462L300.641,225.462L339.366,225.462L339.366,235.462ZM354.63,211.55L250.838,211.55L250.838,201.55L354.63,201.55L354.63,211.55ZM354.63,187.639L250.838,187.639L250.838,177.639L354.63,177.639L354.63,187.639Z" style="fill:white;fill-rule:nonzero;"/>
        </g>
    </g>
</svg>
