<?xml version="1.0" encoding="UTF-8" standalone="no"?>
<!DOCTYPE svg PUBLIC "-//W3C//DTD SVG 1.1//EN" "http://www.w3.org/Graphics/SVG/1.1/DTD/svg11.dtd">
<svg width="100%" height="100%" viewBox="0 0 512 512" version="1.1" xmlns="http://www.w3.org/2000/svg" xmlns:xlink="http://www.w3.org/1999/xlink" xml:space="preserve" xmlns:serif="http://www.serif.com/" style="fill-rule:evenodd;clip-rule:evenodd;stroke-linejoin:round;stroke-miterlimit:2;">
    <g>
        <g>
            <circle cx="256" cy="256" r="256" style="fill:rgb(174,0,255);"/>
            <path d="M256,469.334C138.368,469.334 42.667,373.632 42.667,256.001C42.667,138.369 138.368,42.667 256,42.667C373.636,42.667 469.333,138.369 469.333,256.001C469.333,373.632 373.636,469.334 256,469.334Z" style="fill:rgb(174,0,255);fill-rule:nonzero;"/>
        </g>
        <path id="Shadow" d="M320.92,166.77L282.98,166.77L282.98,258L236.32,258C236.3,258.09 236.35,268 236.32,268L282.98,268L282.98,359.23L320.92,359.23L320.92,380.76L374,380.76L374,327.69L320.92,327.69L320.92,349.23L292.98,349.23L292.98,268L320.92,268L320.92,289.54L374,289.54L374,236.46L320.92,236.46L320.92,258L292.98,258L292.98,176.77L320.92,176.77L320.92,198.31L374,198.31L374,145.24L320.92,145.24L320.92,166.77Z" style="fill-opacity:0.3;fill-rule:nonzero;"/>
        <path id="Ico" d="M312.92,159.77L274.98,159.77L274.98,251L228.32,251C228.38,251 228.38,260.94 228.32,261L274.98,261L274.98,352.23L312.92,352.23L312.92,373.76L366,373.76L366,320.69L312.92,320.69L312.92,342.23L284.98,342.23L284.98,261L312.92,261L312.92,282.54L366,282.54L366,229.46L312.92,229.46L312.92,251L284.98,251L284.98,169.77L312.92,169.77L312.92,191.31L366,191.31L366,138.24L312.92,138.24L312.92,159.77Z" style="fill:white;fill-rule:nonzero;"/>
        <g transform="matrix(0.55631,0.224764,-0.224764,0.55631,78,56)">
            <path d="M383.999,278.492L383.999,249.51L357.695,245.029C355.218,232.723 350.363,221.287 343.652,211.186L359.099,189.396L338.605,168.901L316.814,184.349C306.712,177.637 295.278,172.782 282.971,170.305L278.491,144L249.508,144L245.028,170.305C232.722,172.782 221.286,177.637 211.184,184.349L189.394,168.901L168.9,189.396L184.348,211.186C177.637,221.287 172.782,232.723 170.303,245.029L144,249.51L144,278.492L170.303,282.972C172.782,295.278 177.637,306.715 184.348,316.814L168.9,338.606L189.394,359.1L211.186,343.652C221.286,350.364 232.722,355.218 245.028,357.696L249.508,384L278.491,384L282.971,357.696C295.278,355.218 306.712,350.364 316.814,343.652L338.605,359.1L359.099,338.606L343.652,316.814C350.363,306.715 355.218,295.278 357.695,282.972L383.999,278.492ZM264,313.153C236.853,313.153 214.847,291.147 214.847,264C214.847,236.854 236.853,214.848 264,214.848C291.146,214.848 313.152,236.854 313.152,264C313.152,291.147 291.146,313.153 264,313.153Z" style="fill-opacity:0.3;fill-rule:nonzero;"/>
            <path d="M375.999,270.492L375.999,241.51L349.695,237.029C347.218,224.723 342.363,213.287 335.652,203.186L351.099,181.396L330.605,160.901L308.814,176.349C298.712,169.637 287.278,164.782 274.971,162.305L270.491,136L241.508,136L237.028,162.305C224.722,164.782 213.286,169.637 203.184,176.349L181.394,160.901L160.9,181.396L176.348,203.186C169.637,213.287 164.782,224.723 162.303,237.029L136,241.51L136,270.492L162.303,274.972C164.782,287.278 169.637,298.715 176.348,308.814L160.9,330.606L181.394,351.1L203.186,335.652C213.286,342.364 224.722,347.218 237.028,349.696L241.508,376L270.491,376L274.971,349.696C287.278,347.218 298.712,342.364 308.814,335.652L330.605,351.1L351.099,330.606L335.652,308.814C342.363,298.715 347.218,287.278 349.695,274.972L375.999,270.492ZM256,305.153C228.853,305.153 206.847,283.147 206.847,256C206.847,228.854 228.853,206.848 256,206.848C283.146,206.848 305.152,228.854 305.152,256C305.152,283.147 283.146,305.153 256,305.153Z" style="fill:white;fill-rule:nonzero;"/>
        </g>
    </g>
</svg>
