<?xml version="1.0" encoding="UTF-8" standalone="no"?>
<!DOCTYPE svg PUBLIC "-//W3C//DTD SVG 1.1//EN" "http://www.w3.org/Graphics/SVG/1.1/DTD/svg11.dtd">
<svg width="100%" height="100%" viewBox="0 0 512 512" version="1.1" xmlns="http://www.w3.org/2000/svg" xmlns:xlink="http://www.w3.org/1999/xlink" xml:space="preserve" xmlns:serif="http://www.serif.com/" style="fill-rule:evenodd;clip-rule:evenodd;stroke-linejoin:round;stroke-miterlimit:2;">
    <g>
        <circle cx="256" cy="256" r="256" style="fill:rgb(198,207,123);"/>
        <path d="M256,469.334C138.368,469.334 42.667,373.631 42.667,256.001C42.667,138.369 138.368,42.667 256,42.667C373.636,42.667 469.333,138.369 469.333,256.001C469.333,373.631 373.636,469.334 256,469.334Z" style="fill:rgb(198,207,123);fill-rule:nonzero;"/>
    </g>
    <g transform="matrix(0.7,0,0,0.7,-80,-100)">
        <path id="arrow" d="M368.01,367.07L490,245.05L612,367.06L551,367.06L551,490.06L429,490.07L429,367.07L368.01,367.07ZM429,521.05L429,551.07L551,551.05L551,521.07L429,521.05ZM429,582.06L429,612.06L551,612.07L551,582.06L429,582.06ZM429.05,642.96L429.04,672.96L551,673.05L551.04,642.96L429.05,642.96ZM429,705.06L429,735.06L551,735.07L551,705.05L429,705.06Z" style="fill:rgb(37,37,37);fill-rule:nonzero;"/>
    </g>
</svg>
