<?xml version="1.0" encoding="UTF-8" standalone="no"?>
<!DOCTYPE svg PUBLIC "-//W3C//DTD SVG 1.1//EN" "http://www.w3.org/Graphics/SVG/1.1/DTD/svg11.dtd">
<svg width="100%" height="100%" viewBox="0 0 512 512" version="1.1" xmlns="http://www.w3.org/2000/svg" xmlns:xlink="http://www.w3.org/1999/xlink" xml:space="preserve" xmlns:serif="http://www.serif.com/" style="fill-rule:evenodd;clip-rule:evenodd;stroke-linejoin:round;stroke-miterlimit:2;">
    <g>
        <circle cx="256" cy="256" r="256" style="fill:rgb(0,180,141);"/>
        <path d="M256,469.334C138.368,469.334 42.667,373.631 42.667,256.001C42.667,138.369 138.368,42.667 256,42.667C373.636,42.667 469.333,138.369 469.333,256.001C469.333,373.631 373.636,469.334 256,469.334Z" style="fill:rgb(0,180,141);fill-rule:nonzero;"/>
    </g>
    <g transform="matrix(0.36,0,0,0.36,114,60)">
        <path id="Selection" d="M458,960C450.88,953.38 442,950.89 432.43,939.99C424.1,930.49 415.98,914.44 409.7,903L387.22,863C379.45,848.37 368.4,834.14 368.01,817C367.68,802.29 373.94,787.57 384.04,777C388.72,772.1 392.22,768.68 398,765.06C401.36,762.96 406.75,760.75 408.23,756.91C409.23,754.39 408.04,748.24 408.23,745L408.23,728C408.77,725.44 409.86,719.43 408.81,717.21C407.54,714.52 394.42,706.83 391,703.82C378.11,692.49 369.21,677.53 369,660C368.74,637.82 378.18,625.54 388.72,607L404.58,579C419.04,553.47 430.38,524.76 461,515.03C466.51,513.28 473.21,511.81 479,512.04C487.55,512.37 497.34,515.55 505,519.26C508.57,520.99 516.36,525.59 520,525.45C524.42,525.28 536.68,517.19 541,514.6C550.83,508.7 554.24,508.66 553.99,498C553.92,495.14 553.75,492.58 552.15,490.09C549.35,485.74 533.16,475.67 528,472.6C506.88,460.04 485.49,452.03 462,445.29C452.7,442.62 438.39,438.43 429,438L429,417C429.01,414.41 428.81,411.37 430.02,409.02C432.91,403.42 446.25,397.85 452,394.69C464.79,387.66 485.94,369.7 495.91,359C527.77,324.81 548.67,279.79 552.09,233L553,223L553,205C552.99,196.67 551.62,188.21 550.25,180C542.09,131.16 517.05,84.54 479,52.44C457.48,34.29 433.59,21.86 407,13C391.73,7.91 364.92,2.02 349,2L327,2C306.93,2.03 274.74,10.01 256,17.45C190.76,43.34 140.6,101.93 127,171C125.43,178.97 123.04,195.15 123,203L123,221L124.87,242C130.7,283.98 147.23,322.01 175.29,354C186.4,366.68 200.07,378.48 214,387.97L233,399.69C237.27,402.07 242.48,404.45 244.83,409.01C245.92,411.15 246.92,422.15 246.99,425C247.08,429.22 247.31,433.36 243.77,436.35C240.37,439.23 230.76,440.63 226,442L202,449.66L187,454.42C158.57,465.16 122.49,483.86 100,504.17C82.8,519.7 68.9,538.95 57.43,559C32.23,603.04 14.06,661.71 7.28,712C4.04,736.04 2.04,760.77 2,785L1,802L1,856C1.06,891.28 37.59,906.11 66,916L83,921.86L104,927.87C152.12,939.98 187.83,945.13 237,949.83L256,951.17L295,954.09L324,956L343,957L358,958L372,958L387,959L407,959L422,960L458,960ZM597,494L597,538C597,540.78 597.21,544.42 595.83,546.89C593.17,551.65 579.34,555.1 574,557.05C558.16,562.86 541.56,572.75 528,582.73C523.78,585.84 510.63,597.85 507,598.67C502.87,599.6 495.59,594.53 492,592.4C482.64,586.85 468.27,577.41 458,575L431.72,620L411,658L459,685C455.62,697.75 451.98,717.92 452,731L453,751C453.13,762 455.58,778.56 459,789L426,807.58C422.31,809.67 414.78,813.03 413.21,817.04C411.47,821.45 420.54,834.72 423,839L459,901L491,882.85C493.72,881.29 501.87,876.24 504.58,876.16C508.36,876.05 513.34,881.46 516,883.84C522.42,889.55 530.71,896.03 538,900.58C548.81,907.32 560.1,913.34 572,917.94C576.42,919.65 591.11,924.37 593.77,926.65C597.41,929.75 596.99,933.68 597,938L597,980L693,980L693,926C711.77,923.35 741.6,908.84 757,897.86C765.57,891.74 768.35,889.04 776,882.17C778.42,880 782.65,876.06 786,875.96C789.74,875.85 797.64,881.49 801,883.58C810.62,889.54 821.7,896.56 832,901L854.85,861L880,816L848,797.42C844.21,795.25 837.01,791.8 835.03,787.96C833.22,784.46 835.27,777.88 835.92,774C837.31,765.75 838.99,753.22 839,745C839.03,722.99 837.69,706.48 832,685L879,659L858.3,620L842.42,592L832,574C821.43,577.69 809.7,585.32 800,591.2C796.39,593.39 789.09,598.68 785,598.56C781.12,598.45 776.87,594.02 774,591.58C766.22,584.96 759.75,579.5 751,574.06C739.95,567.2 728.14,561.41 716,556.81C711.43,555.07 699.37,551.65 696.43,548.59C693.64,545.68 694.01,541.72 694,538L694,494L597,494ZM634,619.29C667.81,616.13 706.02,628.51 729.91,653.04C770.54,694.74 774.57,766.57 737.54,812C725.64,826.59 714.66,834.43 698,842.75C677.41,853.04 660.74,855.26 638,855C631.5,854.92 623.34,853.21 617,851.63C583.3,843.2 554.03,820.9 539.31,789C529.16,767.01 527.89,753.66 528,730C528.17,693.08 552.71,654.07 584,635.45C600.28,625.76 615.54,622.1 634,619.29Z" style="fill:white;fill-rule:nonzero;"/>
    </g>
</svg>
