<?xml version="1.0" encoding="UTF-8" standalone="no"?>
<!DOCTYPE svg PUBLIC "-//W3C//DTD SVG 1.1//EN" "http://www.w3.org/Graphics/SVG/1.1/DTD/svg11.dtd">
<svg width="100%" height="100%" viewBox="0 0 512 512" version="1.1" xmlns="http://www.w3.org/2000/svg" xmlns:xlink="http://www.w3.org/1999/xlink" xml:space="preserve" xmlns:serif="http://www.serif.com/" style="fill-rule:evenodd;clip-rule:evenodd;stroke-linejoin:round;stroke-miterlimit:2;">
    <g>
        <g>
            <circle cx="256" cy="256" r="256" style="fill:rgb(161,161,161);"/>
            <path d="M256,469.334C138.369,469.334 42.667,373.631 42.667,256.001C42.667,138.369 138.369,42.667 256,42.667C373.636,42.667 469.333,138.369 469.333,256.001C469.333,373.631 373.636,469.334 256,469.334Z" style="fill:rgb(161,161,161);fill-rule:nonzero;"/>
        </g>
        <g transform="matrix(1.6,0,0,1.6,90,100)">
            <path id="Selection" d="M79,50C77.76,47.29 76.99,45.47 74.79,43.33C66.81,35.57 52.6,37.35 43,40.69C37.32,42.68 32.22,45.49 26,44.81C20.95,44.26 15.9,41.85 12,38.67C9.9,36.96 6.61,33.34 4.06,32.74C-0.28,31.73 -0.07,37.28 0.04,40C0.22,44.64 1.91,50.68 3.62,55C10.75,73.08 24.47,80.94 43,83.15C49.54,83.94 54.56,83.88 61,81.96C66.94,80.18 71.59,77.09 75.2,72C76.9,69.6 78.35,65.48 80.41,63.98C81.78,63 86.94,61.72 89,60.94C94.17,58.97 97.92,56.65 102,52.91C110.15,45.43 115.89,35.16 128,36.09C131.34,36.35 135.18,37.38 137.26,40.22C139.47,43.25 138.73,48.77 136.28,51.49C134.61,53.34 130.4,54.61 128,55.81C123.25,58.19 118.99,61.28 115.09,64.87C95.21,83.14 91.38,102.52 88.83,128L87.01,144C86.91,148.8 87.45,153.3 88.45,158C89.14,161.21 90.18,164.22 91.97,167C104.26,186.09 128.22,173.94 144,167.55C172.38,156.05 199.62,129.4 200,97C200.17,81.95 201,63.14 186,54.22C179.1,50.12 172.58,50.98 165,51.13L151,51.13C155.73,34.35 145.69,23.2 129,23C123.9,22.94 118.84,22.61 114,24.47C104.95,27.95 99.13,36.58 92,42.82C87.09,47.11 84.63,47.51 79,50ZM72,53C66.11,51.95 63.71,51.62 58,54.18C54.47,55.76 50.77,58.8 47,59.38C41.63,60.2 38.38,55.72 35.37,57.82C32.13,60.07 35.93,63.41 38.02,64.56C52.89,72.76 56.83,54.74 72,61C69,71.18 61.26,75.87 51,76C31.76,76.23 12.34,68.31 9,47C14.94,48.68 19.62,51.68 26,51.96C41.56,52.64 63.36,34.95 72,53ZM9,46L9,47L8,46L9,46ZM101,147C99.73,142.53 101.89,130.73 103.15,126C109.2,103.33 125.28,86.52 145,74.6C154.93,68.6 175.37,56.39 183.59,71.02C184.8,73.18 185.81,76.56 186.33,79C187.24,83.26 187.01,87.67 187,92C186.95,125.18 162.01,146.49 133,157.32C126.64,159.69 119.83,163.83 113,163.76C111.78,163.97 110.18,163.89 108.98,163.76C96.75,160.18 108.57,149.47 108.98,146.02C109.07,145.1 108.92,144.18 108.3,143.46C105.74,140.52 102.38,145.26 101,147ZM175.74,73.01C173.34,76.5 174.95,80.87 175,85C175.1,93.89 175.38,101.54 171.91,110C169.56,115.71 165.08,119.46 165.96,122.7C166.68,125.33 170.45,125.48 173.32,122.7C182.78,113.48 182.14,94.19 182,82C181.95,77.78 181.84,70.88 175.74,73.01Z" style="fill:rgb(56,56,56);fill-rule:nonzero;"/>
        </g>
    </g>
</svg>
