<?xml version="1.0" encoding="UTF-8" standalone="no"?>
<!DOCTYPE svg PUBLIC "-//W3C//DTD SVG 1.1//EN" "http://www.w3.org/Graphics/SVG/1.1/DTD/svg11.dtd">
<svg width="100%" height="100%" viewBox="0 0 512 512" version="1.1" xmlns="http://www.w3.org/2000/svg" xmlns:xlink="http://www.w3.org/1999/xlink" xml:space="preserve" xmlns:serif="http://www.serif.com/" style="fill-rule:evenodd;clip-rule:evenodd;stroke-linejoin:round;stroke-miterlimit:2;">
    <g>
        <circle cx="256" cy="256" r="256" style="fill:rgb(60,47,139);"/>
        <path d="M256,469.334C138.369,469.334 42.667,373.631 42.667,256.001C42.667,138.369 138.369,42.667 256,42.667C373.636,42.667 469.333,138.369 469.333,256.001C469.333,373.631 373.636,469.334 256,469.334Z" style="fill:rgb(60,47,139);fill-rule:nonzero;"/>
        <g transform="matrix(0.677734,0,0,0.677734,83.75,69)">
            <path d="M456.832,32.137L415.602,32.137L415.602,15C415.602,6.715 408.883,0 400.602,0C392.316,0 385.602,6.715 385.602,15L385.602,32.137L319.199,32.137L319.199,15C319.199,6.715 312.484,0 304.199,0C295.914,0 289.199,6.715 289.199,15L289.199,32.137L222.801,32.137L222.801,15C222.801,6.715 216.086,0 207.801,0C199.516,0 192.801,6.715 192.801,15L192.801,32.137L126.398,32.137L126.398,15C126.398,6.715 119.684,0 111.398,0C103.117,0 96.398,6.715 96.398,15L96.398,32.137L55.168,32.137C24.746,32.137 -0,56.883 -0,87.301L-0,456.832C-0,487.254 24.746,512 55.168,512L456.832,512C487.254,512 512,487.254 512,456.832L512,87.301C512,56.883 487.254,32.137 456.832,32.137ZM55.168,62.137L96.398,62.137L96.398,63.199C96.398,71.484 103.117,78.199 111.398,78.199C119.684,78.199 126.398,71.484 126.398,63.199L126.398,62.137L192.801,62.137L192.801,63.199C192.801,71.484 199.516,78.199 207.801,78.199C216.086,78.199 222.801,71.484 222.801,63.199L222.801,62.137L289.199,62.137L289.199,63.199C289.199,71.484 295.914,78.199 304.199,78.199C312.484,78.199 319.199,71.484 319.199,63.199L319.199,62.137L385.602,62.137L385.602,63.199C385.602,71.484 392.316,78.199 400.602,78.199C408.883,78.199 415.602,71.484 415.602,63.199L415.602,62.137L456.832,62.137C470.711,62.137 482,73.426 482,87.301L482,107.181L31.844,109.025L30,87.301C30,73.426 41.289,62.137 55.168,62.137ZM456.832,482L55.168,482C41.289,482 30,470.711 30,456.832L30,133.492L482,129.803L482,456.832C482,470.711 470.711,482 456.832,482Z" style="fill:white;fill-rule:nonzero;"/>
        </g>
        <g transform="matrix(0.424316,0,0,0.424316,147.25,168.75)">
            <path d="M324.75,0L121,0L121,90L361,90C427.72,90 482,144.28 482,211C482,266.024 443.144,313.937 390.668,327.294C390.881,323.555 391,319.792 391,316C391,207.925 303.523,120 196,120C88.202,120 0,208.213 0,316C0,423.799 88.214,512 196,512C266.77,512 328.851,473.907 363.026,417.053C449.34,399.002 512,322.706 512,234.75L512,187.25C512,84.286 427.699,0 324.75,0ZM301,60L241,60L241,30L301,30L301,60ZM151,30L211,30L211,60L151,60L151,30ZM361,60L331,60L331,30.138C376.377,31.922 416.88,53.012 444.483,85.418C419.868,68.881 391.06,60 361,60ZM196,482C104.467,482 30,407.533 30,316C30,224.467 104.467,150 196,150C286.981,150 361,224.467 361,316C361,407.533 286.981,482 196,482ZM379.988,380.929C382.502,373.752 384.614,366.387 386.291,358.858C406.732,355.392 426.15,347.777 443.416,336.532C426.445,356.071 404.72,371.547 379.988,380.929Z" style="fill:white;fill-rule:nonzero;"/>
        </g>
        <g transform="matrix(0.424316,0,0,0.424316,147.25,168.75)">
            <path d="M196,271C220.813,271 241,250.813 241,226C241,201.187 220.813,181 196,181C171.187,181 151,201.187 151,226C151,250.813 171.187,271 196,271ZM196,211C204.271,211 211,217.729 211,226C211,234.271 204.271,241 196,241C187.729,241 181,234.271 181,226C181,217.729 187.729,211 196,211Z" style="fill:white;fill-rule:nonzero;"/>
        </g>
        <g transform="matrix(0.424316,0,0,0.424316,147.25,168.75)">
            <path d="M196,361C171.187,361 151,381.187 151,406C151,430.813 171.187,451 196,451C220.813,451 241,430.813 241,406C241,381.187 220.813,361 196,361ZM196,421C187.729,421 181,414.271 181,406C181,397.729 187.729,391 196,391C204.271,391 211,397.729 211,406C211,414.271 204.271,421 196,421Z" style="fill:white;fill-rule:nonzero;"/>
        </g>
        <g transform="matrix(0.424316,0,0,0.424316,147.25,168.75)">
            <path d="M106,271C81.187,271 61,291.187 61,316C61,340.813 81.187,361 106,361C130.813,361 151,340.813 151,316C151,291.187 130.813,271 106,271ZM106,331C97.729,331 91,324.271 91,316C91,307.729 97.729,301 106,301C114.271,301 121,307.729 121,316C121,324.271 114.271,331 106,331Z" style="fill:white;fill-rule:nonzero;"/>
        </g>
        <g transform="matrix(0.424316,0,0,0.424316,147.25,168.75)">
            <path d="M286,271C261.187,271 241,291.187 241,316C241,340.813 261.187,361 286,361C310.813,361 331,340.813 331,316C331,291.187 310.813,271 286,271ZM286,331C277.729,331 271,324.271 271,316C271,307.729 277.729,301 286,301C294.271,301 301,307.729 301,316C301,324.271 294.271,331 286,331Z" style="fill:white;fill-rule:nonzero;"/>
        </g>
        <g transform="matrix(0.424316,0,0,0.424316,147.25,168.75)">
            <rect x="181" y="301" width="30" height="30" style="fill:white;fill-rule:nonzero;"/>
        </g>
    </g>
</svg>
