<?xml version="1.0" encoding="UTF-8" standalone="no"?>
<!DOCTYPE svg PUBLIC "-//W3C//DTD SVG 1.1//EN" "http://www.w3.org/Graphics/SVG/1.1/DTD/svg11.dtd">
<svg width="100%" height="100%" viewBox="0 0 512 512" version="1.1" xmlns="http://www.w3.org/2000/svg" xmlns:xlink="http://www.w3.org/1999/xlink" xml:space="preserve" xmlns:serif="http://www.serif.com/" style="fill-rule:evenodd;clip-rule:evenodd;stroke-linejoin:round;stroke-miterlimit:2;">
    <circle cx="256" cy="256" r="256" style="fill:rgb(145,145,145);"/>
    <g id="Selection" transform="matrix(0.84107,0,0,0.84107,36.1682,32.7104)">
        <path d="M255.969,79.99L255.969,254.969L219.973,218.973C217.373,216.373 207.764,206.005 204.975,205.315C201.185,204.365 192.366,213.184 193.316,216.973C194.016,219.793 205.275,230.272 207.974,232.971L246.97,271.967L257.968,282.945C259.478,284.385 261.728,286.765 263.968,286.765C266.207,286.765 268.457,284.385 269.967,282.945L280.965,271.967L319.961,232.971C322.66,230.272 333.919,219.793 334.619,216.973C335.569,213.184 326.75,204.365 322.96,205.315C320.171,206.005 310.562,216.373 307.962,218.973L271.967,254.969L271.967,79.99L255.969,79.99ZM64.162,431.947L463.773,431.947L463.773,293.964C463.943,291.744 464.033,289.104 463.773,286.965C462.423,283.235 454.294,271.067 451.754,266.967L420.528,216.973L394.271,174.978C385.063,160.37 386.602,160 376.954,159.98L287.965,159.98L287.965,175.978L364.955,175.978L372.774,176.998L379.003,184.977L389.632,201.975L423.368,255.969L442.945,287.965L335.959,287.965C335.959,304.882 338.998,327.64 326.78,340.918C318.371,350.047 307.782,351.937 295.964,351.957L229.972,351.957C219.013,351.827 208.844,349.267 201.155,340.918C188.937,327.64 191.976,304.882 191.976,287.965L84.99,287.965L104.567,255.969L138.303,201.975L148.932,184.977L155.161,176.998L162.98,175.978L239.97,175.978L239.97,159.98L150.981,159.98C141.333,160 142.872,160.37 133.664,174.978L107.407,216.973L76.181,266.967C73.641,271.067 65.512,283.235 64.162,286.965C63.902,289.104 63.992,291.744 64.162,293.964L64.162,431.947Z" style="fill:rgb(54,54,54);fill-rule:nonzero;"/>
    </g>
</svg>
