<?xml version="1.0" encoding="UTF-8" standalone="no"?>
<!DOCTYPE svg PUBLIC "-//W3C//DTD SVG 1.1//EN" "http://www.w3.org/Graphics/SVG/1.1/DTD/svg11.dtd">
<svg width="100%" height="100%" viewBox="0 0 512 512" version="1.1" xmlns="http://www.w3.org/2000/svg" xmlns:xlink="http://www.w3.org/1999/xlink" xml:space="preserve" xmlns:serif="http://www.serif.com/" style="fill-rule:evenodd;clip-rule:evenodd;stroke-linejoin:round;stroke-miterlimit:2;">
    <g>
        <g>
            <circle cx="256" cy="256" r="256" style="fill:rgb(33,135,255);"/>
            <path d="M256,469.334C138.369,469.334 42.667,373.631 42.667,256.001C42.667,138.369 138.369,42.667 256,42.667C373.636,42.667 469.333,138.369 469.333,256.001C469.333,373.631 373.636,469.334 256,469.334Z" style="fill:rgb(33,135,255);fill-rule:nonzero;"/>
        </g>
        <g id="cover-shadow">
            <path id="Selection" d="M339,138L335,143L322,131.01C320.46,129.58 318.26,127.2 316,127.2C312.63,127.2 302.72,138.22 300.01,141L266,177C263.38,179.65 253.04,189.18 252.34,192C251.3,196.15 261.08,203.94 263.96,206.72C265.38,208.08 268.92,211.37 265.71,213.09C261.8,215.19 257.02,206.34 253,205.34C249.05,204.35 241.71,213.29 239,216L273,250C275.96,247.88 284.8,240.69 284.8,237C284.8,233.7 279.17,229.69 277.29,227C276.38,225.71 275.01,223.07 277.29,222.2C279.32,221.42 281.67,223.82 283,225.04C285.81,227.61 293.21,235.91 297,235.82C300.28,235.74 306.52,228.49 308.72,226C317.72,215.79 329.64,205.99 337,195C373.45,234.79 367.62,297.2 322,327.64C320.34,328.75 317.46,330.75 315.42,330.71C313.1,330.66 306.92,325.71 299,325.21C280.63,324.05 269.03,340.2 269,357L269,374C269,376.19 269.21,379.84 267.98,381.69C266.25,384.27 262.73,383.98 260,384L231,384L231,318L295,318L295,308L289,308L289,304L150,304L150,308L144,308L144,318L209,318L209,374C209,376.19 209.21,379.84 207.98,381.69C205.63,385.2 193.17,384 189,384L132,384L132,401L338,401L338,384C335.14,384 329.71,384.51 327.6,382.4C325.96,380.77 326.04,378.14 326,376L326,357C326.02,344.73 329.78,347.05 341,337.72C349.58,330.58 355.38,324.24 361.66,315C382.58,284.2 386.06,243.79 370.29,210C365.81,200.38 359.23,188.79 351,182L362,170L352,159.42L345.58,152L347,147L366,165C370.92,160.83 373,156.24 374.33,150C378.04,132.64 367.39,115.84 350,112.02C342.77,110.43 335.73,111.12 329,114.33C326.77,115.39 323.01,117.49 322.34,120.04C321.7,122.45 323.6,124.37 325.06,126C329.12,130.53 333.96,134.62 339,138Z" style="fill:white;fill-rule:nonzero;"/>
        </g>
    </g>
</svg>
