<?xml version="1.0" encoding="UTF-8" standalone="no"?>
<!DOCTYPE svg PUBLIC "-//W3C//DTD SVG 1.1//EN" "http://www.w3.org/Graphics/SVG/1.1/DTD/svg11.dtd">
<svg width="100%" height="100%" viewBox="0 0 512 512" version="1.1" xmlns="http://www.w3.org/2000/svg" xmlns:xlink="http://www.w3.org/1999/xlink" xml:space="preserve" xmlns:serif="http://www.serif.com/" style="fill-rule:evenodd;clip-rule:evenodd;stroke-linejoin:round;stroke-miterlimit:2;">
    <g>
        <g>
            <circle cx="256" cy="256" r="256" style="fill:rgb(0,96,188);"/>
            <path d="M256,469.334C138.369,469.334 42.667,373.631 42.667,256.001C42.667,138.369 138.369,42.667 256,42.667C373.636,42.667 469.333,138.369 469.333,256.001C469.333,373.631 373.636,469.334 256,469.334Z" style="fill:rgb(0,96,188);fill-rule:nonzero;"/>
        </g>
        <g id="cover-shadow" transform="matrix(2,0,0,2,124,124)">
            <g transform="matrix(1.15,0,0,1.15,-8,-8)">
                <path id="Selection" d="M0,0L0,24L8,24L8,8L24,8L24,0L0,0ZM40,0L40,8L56,8L56,0L40,0ZM72,0L72,8L88,8L88,0L72,0ZM104,0L104,8L120,8L120,24L128,24L128,0L104,0ZM0,40L0,56L8,56L8,40L0,40ZM120,40L120,56L128,56L128,40L120,40ZM0,72L0,88L8,88L8,72L0,72ZM120,72L120,88L128,88L128,72L120,72ZM0,104L0,128L16,128L16,120L8,120L8,104L0,104ZM120,104L120,120L104,120L104,128L128,128L128,104L120,104ZM40,120L40,128L56,128L56,120L40,120ZM72,120L72,128L88,128L88,120L72,120Z" style="fill:white;fill-rule:nonzero;"/>
            </g>
            <g transform="matrix(1,0,0,1,-21,24)">
                <path id="Selection1" serif:id="Selection" d="M48,24L48,64L24,64L64,102.8L104,64L80,64L80,24L48,24Z" style="fill:white;fill-rule:nonzero;"/>
            </g>
            <g transform="matrix(0.25,0,0,0.25,24,-21)">
                <path id="Selection2" serif:id="Selection" d="M96,256L192,256L192,416L320,416L320,256L416,256L256,97.2L96,256Z" style="fill:white;fill-rule:nonzero;"/>
            </g>
        </g>
    </g>
</svg>
